<svg width="103" height="36" viewBox="0 0 103 36" fill="none" xmlns="http://www.w3.org/2000/svg">
<path d="M76.5938 22.2031C76.5938 20.0156 77.1328 17.8984 78.2109 15.8516C79.2891 13.8047 80.8125 12.2422 82.7812 11.1641C84.7656 10.0859 86.9766 9.54688 89.4141 9.54688C93.1797 9.54688 96.2656 10.7734 98.6719 13.2266C101.078 15.6641 102.281 18.75 102.281 22.4844C102.281 26.25 101.062 29.375 98.625 31.8594C96.2031 34.3281 93.1484 35.5625 89.4609 35.5625C87.1797 35.5625 85 35.0469 82.9219 34.0156C80.8594 32.9844 79.2891 31.4766 78.2109 29.4922C77.1328 27.4922 76.5938 25.0625 76.5938 22.2031ZM83.3438 22.5547C83.3438 25.0234 83.9297 26.9141 85.1016 28.2266C86.2734 29.5391 87.7188 30.1953 89.4375 30.1953C91.1562 30.1953 92.5938 29.5391 93.75 28.2266C94.9219 26.9141 95.5078 25.0078 95.5078 22.5078C95.5078 20.0703 94.9219 18.1953 93.75 16.8828C92.5938 15.5703 91.1562 14.9141 89.4375 14.9141C87.7188 14.9141 86.2734 15.5703 85.1016 16.8828C83.9297 18.1953 83.3438 20.0859 83.3438 22.5547Z" fill="white"/>
<path d="M71.6016 35H65.4844V31.3438C64.4688 32.7656 63.2656 33.8281 61.875 34.5312C60.5 35.2188 59.1094 35.5625 57.7031 35.5625C54.8438 35.5625 52.3906 34.4141 50.3438 32.1172C48.3125 29.8047 47.2969 26.5859 47.2969 22.4609C47.2969 18.2422 48.2891 15.0391 50.2734 12.8516C52.2578 10.6484 54.7656 9.54688 57.7969 9.54688C60.5781 9.54688 62.9844 10.7031 65.0156 13.0156V0.640625H71.6016V35ZM54.0234 22.0156C54.0234 24.6719 54.3906 26.5938 55.125 27.7812C56.1875 29.5 57.6719 30.3594 59.5781 30.3594C61.0938 30.3594 62.3828 29.7188 63.4453 28.4375C64.5078 27.1406 65.0391 25.2109 65.0391 22.6484C65.0391 19.7891 64.5234 17.7344 63.4922 16.4844C62.4609 15.2188 61.1406 14.5859 59.5312 14.5859C57.9688 14.5859 56.6562 15.2109 55.5938 16.4609C54.5469 17.6953 54.0234 19.5469 54.0234 22.0156Z" fill="white"/>
<path d="M17.9062 22.2031C17.9062 20.0156 18.4453 17.8984 19.5234 15.8516C20.6016 13.8047 22.125 12.2422 24.0938 11.1641C26.0781 10.0859 28.2891 9.54688 30.7266 9.54688C34.4922 9.54688 37.5781 10.7734 39.9844 13.2266C42.3906 15.6641 43.5938 18.75 43.5938 22.4844C43.5938 26.25 42.375 29.375 39.9375 31.8594C37.5156 34.3281 34.4609 35.5625 30.7734 35.5625C28.4922 35.5625 26.3125 35.0469 24.2344 34.0156C22.1719 32.9844 20.6016 31.4766 19.5234 29.4922C18.4453 27.4922 17.9062 25.0625 17.9062 22.2031ZM24.6562 22.5547C24.6562 25.0234 25.2422 26.9141 26.4141 28.2266C27.5859 29.5391 29.0312 30.1953 30.75 30.1953C32.4688 30.1953 33.9062 29.5391 35.0625 28.2266C36.2344 26.9141 36.8203 25.0078 36.8203 22.5078C36.8203 20.0703 36.2344 18.1953 35.0625 16.8828C33.9062 15.5703 32.4688 14.9141 30.75 14.9141C29.0312 14.9141 27.5859 15.5703 26.4141 16.8828C25.2422 18.1953 24.6562 20.0859 24.6562 22.5547Z" fill="white"/>
<path d="M14.8594 10.1094V15.3594H10.3594V25.3906C10.3594 27.4219 10.3984 28.6094 10.4766 28.9531C10.5703 29.2812 10.7656 29.5547 11.0625 29.7734C11.375 29.9922 11.75 30.1016 12.1875 30.1016C12.7969 30.1016 13.6797 29.8906 14.8359 29.4688L15.3984 34.5781C13.8672 35.2344 12.1328 35.5625 10.1953 35.5625C9.00781 35.5625 7.9375 35.3672 6.98438 34.9766C6.03125 34.5703 5.32812 34.0547 4.875 33.4297C4.4375 32.7891 4.13281 31.9297 3.96094 30.8516C3.82031 30.0859 3.75 28.5391 3.75 26.2109V15.3594H0.726562V10.1094H3.75V5.16406L10.3594 1.32031V10.1094H14.8594Z" fill="white"/>
</svg>
